# xmcd CD database file
#
# Track frame offsets:
#	150
#	23307
#	45955
#	60553
#	80226
#	111187
#	131812
#	143668
#	161156
#	172668
#	188212
#	203106
#	222675
#	236283
#
# Disc length: 3330 seconds
#
# Revision: 0
# Processed by: cddbd v1.4PL0 Copyright (c) Steve Scherf et al.
# Submitted via: CDex 1.50beta10
#
DISCID=bb0d000e
DTITLE=B.B. King - B.B. Boogie - Disc 1
DYEAR=2002
DGENRE=Blues
TTITLE0=You've Done Lost Your Good Thing Now
TTITLE1=Everyday I Have THe Blues
TTITLE2=Mr. Pawnbroker
TTITLE3=How BLue Can You Get
TTITLE4=Outside Help
TTITLE5=Guess Who
TTITLE6=Payin' The Cost To Be The Boss
TTITLE7=That Evil Child
TTITLE8=I Never Heard A Man
TTITLE9=The Letter
TTITLE10=Precious Lord
TTITLE11=The Thrill Is Gone
TTITLE12=Jesus Gave Me Water
TTITLE13=Save A Seat For Me
EXTD=YEAR: 2002
EXTT0=
EXTT1=
EXTT2=
EXTT3=
EXTT4=
EXTT5=
EXTT6=
EXTT7=
EXTT8=
EXTT9=
EXTT10=
EXTT11=
EXTT12=
EXTT13=
PLAYORDER=
